<svg width="421" height="554" viewBox="0 0 421 554" fill="none" xmlns="http://www.w3.org/2000/svg">
<path d="M248.161 267.068C256.898 114.804 180.579 36.0707 157.705 0C283.485 27.4246 420.606 92.0214 420.606 273.459C420.606 428.102 295.324 553.475 140.755 553.475C91.265 553.481 42.6715 540.258 0 515.175C75.6985 472.548 239.398 419.386 248.135 267.13" fill="#FFFFFA"/>
<path d="M358.777 347.793C358.776 350.716 359.352 353.612 360.471 356.313C361.59 359.014 363.231 361.468 365.299 363.534C367.368 365.6 369.824 367.238 372.526 368.354C375.228 369.47 378.124 370.042 381.048 370.037C385.454 370.037 389.76 368.73 393.423 366.282C397.086 363.834 399.941 360.354 401.626 356.283C403.31 352.212 403.75 347.733 402.888 343.412C402.027 339.091 399.903 335.123 396.786 332.01C393.669 328.896 389.698 326.777 385.377 325.921C381.055 325.064 376.576 325.509 372.507 327.199C368.438 328.888 364.962 331.747 362.518 335.413C360.074 339.079 358.772 343.387 358.777 347.793" fill="#F8F8F4"/>
<path d="M144.857 527.901C161.685 527.901 175.326 514.259 175.326 497.432C175.326 480.604 161.685 466.963 144.857 466.963C128.03 466.963 114.388 480.604 114.388 497.432C114.388 514.259 128.03 527.901 144.857 527.901Z" fill="#F8F8F4"/>
<path d="M281.426 442.033C309.718 442.033 332.653 419.098 332.653 390.805C332.653 362.513 309.718 339.578 281.426 339.578C253.133 339.578 230.198 362.513 230.198 390.805C230.198 419.098 253.133 442.033 281.426 442.033Z" fill="#F8F8F4"/>
<path d="M279.431 105.819C279.43 110.617 281.335 115.219 284.727 118.613C288.119 122.007 292.721 123.914 297.519 123.916C302.318 123.917 306.92 122.012 310.314 118.62C313.708 115.227 315.615 110.626 315.616 105.827C315.617 103.451 315.149 101.099 314.241 98.9033C313.332 96.708 312 94.7132 310.32 93.0328C308.641 91.3523 306.646 90.0191 304.451 89.1094C302.257 88.1996 299.904 87.731 297.528 87.7305C292.73 87.7293 288.127 89.6344 284.733 93.0266C283.053 94.7062 281.72 96.7004 280.81 98.8953C279.9 101.09 279.432 103.443 279.431 105.819" fill="#F8F8F4"/>
</svg>
