<svg width="512" height="512" viewBox="0 0 512 512" fill="none" xmlns="http://www.w3.org/2000/svg">
<path d="M429.707 504.499H82.2931C70.5791 504.499 61.0841 495.003 61.0841 483.29V28.7129C61.0841 16.9989 70.5801 7.50391 82.2931 7.50391H429.707C441.421 7.50391 450.916 16.9999 450.916 28.7129V483.289C450.916 495.003 441.42 504.499 429.707 504.499Z" fill="#F4FBFF"/>
<path d="M429.707 7.50195H366.359C378.073 7.50195 387.568 16.998 387.568 28.711V483.288C387.568 495.002 378.072 504.497 366.359 504.497H429.707C441.421 504.497 450.916 495.001 450.916 483.288V28.712C450.916 16.998 441.42 7.50195 429.707 7.50195V7.50195Z" fill="#E4F6FF"/>
<path d="M146.133 168.083C174.841 168.083 198.114 144.81 198.114 116.102C198.114 87.3938 174.841 64.1211 146.133 64.1211C117.425 64.1211 94.1521 87.3938 94.1521 116.102C94.1521 144.81 117.425 168.083 146.133 168.083Z" fill="white"/>
<path d="M146.133 128.363C129.567 128.363 115.585 139.397 111.115 154.514C120.354 162.941 132.642 168.081 146.133 168.081C159.623 168.081 171.912 162.94 181.151 154.514C176.681 139.397 162.7 128.363 146.133 128.363Z" fill="#407093"/>
<path d="M146.133 132.985C156.291 132.985 164.526 124.75 164.526 114.592C164.526 104.434 156.291 96.1992 146.133 96.1992C135.975 96.1992 127.74 104.434 127.74 114.592C127.74 124.75 135.975 132.985 146.133 132.985Z" fill="#365E7D"/>
<path d="M310.217 93.6691C314.714 93.6691 319.049 94.9921 322.755 97.4951C326.189 99.8131 330.852 98.9111 333.171 95.4781C335.491 92.0441 334.587 87.3811 331.154 85.0621C324.959 80.8771 317.718 78.6641 310.217 78.6641C289.574 78.6641 272.779 95.4591 272.779 116.102C272.779 136.745 289.574 153.541 310.217 153.541C318.468 153.541 325.875 150.828 331.637 145.697C332.768 144.69 333.84 143.583 334.826 142.408C337.488 139.232 337.071 134.5 333.896 131.838C330.721 129.175 325.988 129.593 323.327 132.768C322.808 133.387 322.246 133.968 321.657 134.492C318.644 137.175 314.795 138.536 310.217 138.536C297.847 138.536 287.783 128.472 287.783 116.102C287.783 103.733 297.847 93.6691 310.217 93.6691V93.6691Z" fill="black"/>
<path d="M384.903 153.541H384.963C388.728 153.516 392.073 151.104 393.302 147.488L412.851 88.642C414.157 84.71 412.028 80.464 408.096 79.157C404.163 77.849 399.917 79.979 398.611 83.911L384.775 125.56L370.247 83.707C368.888 79.792 364.613 77.719 360.699 79.08C356.785 80.439 354.713 84.713 356.072 88.627L376.56 147.65C377.814 151.181 381.162 153.541 384.903 153.541V153.541Z" fill="black"/>
<path d="M410.919 243.936H270.214C266.071 243.936 262.712 247.295 262.712 251.438C262.712 255.581 266.071 258.94 270.214 258.94H410.919C415.062 258.94 418.421 255.581 418.421 251.438C418.421 247.295 415.063 243.936 410.919 243.936Z" fill="black"/>
<path d="M270.214 304.959H340.567C344.71 304.959 348.069 301.601 348.069 297.457C348.069 293.313 344.71 289.955 340.567 289.955H270.214C266.071 289.955 262.712 293.313 262.712 297.457C262.712 301.601 266.071 304.959 270.214 304.959Z" fill="black"/>
<path d="M410.919 335.975H270.214C266.071 335.975 262.712 339.333 262.712 343.477C262.712 347.621 266.071 350.979 270.214 350.979H410.919C415.062 350.979 418.421 347.62 418.421 343.477C418.421 339.334 415.063 335.975 410.919 335.975Z" fill="black"/>
<path d="M418.422 389.496C418.422 385.352 415.063 381.994 410.92 381.994H270.214C266.071 381.994 262.712 385.352 262.712 389.496C262.712 393.64 266.071 396.998 270.214 396.998H410.919C415.063 396.999 418.422 393.64 418.422 389.496V389.496Z" fill="black"/>
<path d="M270.214 429.242C266.071 429.242 262.712 432.6 262.712 436.744C262.712 440.888 266.071 444.246 270.214 444.246H340.567C344.71 444.246 348.069 440.887 348.069 436.744C348.069 432.601 344.71 429.242 340.567 429.242H270.214Z" fill="black"/>
<path d="M410.919 197.914H270.214C266.071 197.914 262.712 201.273 262.712 205.416C262.712 209.559 266.071 212.918 270.214 212.918H410.919C415.062 212.918 418.421 209.559 418.421 205.416C418.421 201.273 415.063 197.914 410.919 197.914Z" fill="black"/>
<path d="M450.916 105.271C455.059 105.271 458.418 101.912 458.418 97.769V28.711C458.419 12.88 445.539 0 429.707 0H82.2931C66.4611 0 53.5811 12.88 53.5811 28.711V483.288C53.5811 499.119 66.4611 511.999 82.2931 511.999H429.706C445.538 511.999 458.418 499.119 458.418 483.288V132.843C458.418 128.699 455.059 125.341 450.916 125.341C446.773 125.341 443.414 128.7 443.414 132.843V483.289C443.414 490.847 437.265 496.996 429.707 496.996H238.494V15.005H429.706C437.264 15.005 443.413 21.153 443.413 28.712V97.77C443.414 101.913 446.773 105.271 450.916 105.271V105.271ZM223.489 496.995H82.2931C74.7351 496.995 68.5861 490.847 68.5861 483.288V28.711C68.5861 21.153 74.7351 15.004 82.2931 15.004H223.489V496.995Z" fill="black"/>
<path d="M146.133 175.585C178.83 175.585 205.616 148.962 205.616 116.102C205.616 83.3031 178.932 56.6191 146.133 56.6191C113.334 56.6191 86.65 83.3031 86.65 116.102C86.65 148.922 113.396 175.585 146.133 175.585ZM146.133 160.58C136.413 160.58 127.419 157.437 120.093 152.127C123.216 145.805 128.614 140.731 135.152 138.036C138.488 139.605 142.209 140.487 146.133 140.487C150.057 140.487 153.778 139.605 157.114 138.036C163.652 140.731 169.05 145.805 172.173 152.127C164.848 157.438 155.853 160.58 146.133 160.58ZM135.243 114.592C135.243 108.586 140.128 103.701 146.134 103.701C152.139 103.701 157.025 108.586 157.025 114.592C157.025 120.597 152.14 125.482 146.134 125.482C140.128 125.482 135.243 120.597 135.243 114.592ZM146.133 71.6241C170.659 71.6241 190.611 91.5771 190.611 116.102C190.611 125.273 187.82 133.804 183.044 140.892C179.405 135.274 174.545 130.559 168.788 127.118C170.85 123.403 172.029 119.133 172.029 114.592C172.029 100.313 160.412 88.6961 146.133 88.6961C131.854 88.6961 120.237 100.313 120.237 114.592C120.237 119.134 121.416 123.403 123.478 127.118C117.72 130.559 112.86 135.274 109.222 140.892C104.446 133.804 101.655 125.273 101.655 116.102C101.655 91.5771 121.608 71.6241 146.133 71.6241V71.6241Z" fill="black"/>
<path d="M102.663 285.222H189.603C198.538 285.222 205.807 277.953 205.807 269.019V247.584C205.807 238.649 198.538 231.381 189.603 231.381H102.663C93.7281 231.381 86.4591 238.65 86.4591 247.584V269.019C86.4591 277.953 93.7281 285.222 102.663 285.222V285.222ZM101.464 247.584C101.464 246.923 102.002 246.385 102.663 246.385H189.603C190.264 246.385 190.802 246.922 190.802 247.584V269.019C190.802 269.68 190.264 270.218 189.603 270.218H102.663C102.002 270.218 101.464 269.681 101.464 269.019V247.584Z" fill="black"/>
<path d="M102.663 364.734H110.233C114.376 364.734 117.735 361.376 117.735 357.232C117.735 353.088 114.376 349.73 110.233 349.73H102.663C102.002 349.73 101.464 349.193 101.464 348.531V327.096C101.464 326.435 102.002 325.897 102.663 325.897H189.603C190.264 325.897 190.802 326.434 190.802 327.096V348.531C190.802 349.192 190.264 349.73 189.603 349.73H145.306C141.163 349.73 137.804 353.089 137.804 357.232C137.804 361.375 141.163 364.734 145.306 364.734H189.603C198.538 364.734 205.807 357.465 205.807 348.531V327.096C205.807 318.161 198.538 310.893 189.603 310.893H102.663C93.7281 310.893 86.4591 318.162 86.4591 327.096V348.531C86.4591 357.466 93.7281 364.734 102.663 364.734V364.734Z" fill="black"/>
<path d="M102.663 444.247H189.603C198.538 444.247 205.807 436.978 205.807 428.044V406.609C205.807 397.674 198.538 390.406 189.603 390.406H102.663C93.7281 390.406 86.4591 397.675 86.4591 406.609V428.044C86.4591 436.978 93.7281 444.247 102.663 444.247V444.247ZM101.464 406.608C101.464 405.947 102.002 405.409 102.663 405.409H189.603C190.264 405.409 190.802 405.946 190.802 406.608V428.043C190.802 428.704 190.264 429.242 189.603 429.242H102.663C102.002 429.242 101.464 428.705 101.464 428.043V406.608Z" fill="black"/>
</svg>
