<svg width="475" height="228" viewBox="0 0 475 228" fill="none" xmlns="http://www.w3.org/2000/svg">
<path fill-rule="evenodd" clip-rule="evenodd" d="M306.176 12.8C306.176 19.84 299.264 25.6 290.816 25.6H136.704C128.256 25.6 121.344 19.84 121.344 12.8C121.344 5.76 128.256 0 136.704 0H290.816C299.264 0 306.176 5.76 306.176 12.8ZM48.128 61.4396C48.128 68.4796 41.216 74.2406 32.768 74.2406H15.359C6.912 74.2406 0 68.4796 0 61.4396C0 54.4006 6.912 48.6396 15.359 48.6396H32.768C41.216 48.6396 48.128 54.4006 48.128 61.4396ZM350.72 12.8C350.72 19.84 344.96 25.6 337.92 25.6C330.88 25.6 325.12 19.84 325.12 12.8C325.12 5.76 330.88 0 337.92 0C344.96 0 350.72 5.76 350.72 12.8ZM431.104 112.64C431.104 119.68 424.192 125.44 415.745 125.44H398.336C389.888 125.44 382.976 119.68 382.976 112.64C382.976 105.6 389.888 99.8398 398.336 99.8398H415.745C424.192 99.8398 431.104 105.6 431.104 112.64Z" fill="white"/>
<path fill-rule="evenodd" clip-rule="evenodd" d="M458.752 202.24H335.872C327.424 202.24 320.512 196.479 320.512 189.439C320.512 182.4 327.424 176.639 335.872 176.639H342.527C350.976 176.639 357.888 170.88 357.888 163.84C357.888 156.8 350.976 151.04 342.527 151.04H259.071C250.624 151.04 243.712 145.28 243.712 138.24C243.712 131.2 250.624 125.439 259.071 125.439H359.424C367.872 125.439 374.783 119.679 374.783 112.639C374.783 105.599 367.872 99.8397 359.424 99.8397H229.376C220.928 99.8397 214.016 94.0797 214.016 87.0397C214.016 79.9997 220.928 74.2397 229.376 74.2397H336.896C345.344 74.2397 352.256 68.4787 352.256 61.4387C352.256 54.3997 345.344 48.6387 336.896 48.6387H75.775C67.328 48.6387 60.416 54.3997 60.416 61.4387C60.416 68.4787 67.328 74.2397 75.775 74.2397H173.567C182.016 74.2397 188.928 79.9997 188.928 87.0397C188.928 94.0797 182.016 99.8397 173.567 99.8397H136.704C128.256 99.8397 121.344 105.599 121.344 112.639C121.344 119.679 128.256 125.439 136.704 125.439H136.191C144.64 125.439 151.552 131.2 151.552 138.24C151.552 145.28 144.64 151.04 136.191 151.04H19.968C11.52 151.04 4.60699 156.8 4.60699 163.84C4.60699 170.88 11.52 176.639 19.968 176.639H221.184C229.632 176.639 236.544 182.4 236.544 189.439C236.544 196.479 229.632 202.24 221.184 202.24H197.632C189.184 202.24 182.272 208 182.272 215.04C182.272 222.08 189.184 227.84 197.632 227.84H458.752C467.199 227.84 474.111 222.08 474.111 215.04C474.111 208 467.199 202.24 458.752 202.24Z" fill="white"/>
</svg>
