<svg width="475" height="229" viewBox="0 0 475 229" fill="none" xmlns="http://www.w3.org/2000/svg">
<path fill-rule="evenodd" clip-rule="evenodd" d="M48.1282 167.18C48.1282 160.14 41.2162 154.379 32.7682 154.379H15.3592C6.91224 154.379 0.000244141 160.14 0.000244141 167.18C0.000244141 174.219 6.91224 179.98 15.3592 179.98H32.7682C41.2162 179.98 48.1282 174.219 48.1282 167.18ZM350.72 215.819C350.72 208.779 344.96 203.019 337.92 203.019C330.88 203.019 325.12 208.779 325.12 215.819C325.12 222.859 330.88 228.619 337.92 228.619C344.96 228.619 350.72 222.859 350.72 215.819ZM431.104 115.98C431.104 108.94 424.192 103.18 415.745 103.18H398.336C389.888 103.18 382.976 108.94 382.976 115.98C382.976 123.02 389.888 128.78 398.336 128.78H415.745C424.192 128.78 431.104 123.02 431.104 115.98Z" fill="white"/>
<path fill-rule="evenodd" clip-rule="evenodd" d="M458.752 26.3793H335.872C327.424 26.3793 320.512 32.1403 320.512 39.1803C320.512 46.2193 327.424 51.9803 335.872 51.9803H342.527C350.976 51.9803 357.888 57.7393 357.888 64.7793C357.888 71.8193 350.976 77.5793 342.527 77.5793H259.071C250.624 77.5793 243.712 83.3393 243.712 90.3793C243.712 97.4193 250.624 103.18 259.071 103.18H359.424C367.872 103.18 374.783 108.94 374.783 115.98C374.783 123.02 367.872 128.779 359.424 128.779H229.376C220.928 128.779 214.016 134.539 214.016 141.579C214.016 148.619 220.928 154.379 229.376 154.379H336.896C345.344 154.379 352.256 160.14 352.256 167.18C352.256 174.219 345.344 179.98 336.896 179.98H75.7753C67.3283 179.98 60.4163 174.219 60.4163 167.18C60.4163 160.14 67.3283 154.379 75.7753 154.379H173.567C182.016 154.379 188.928 148.619 188.928 141.579C188.928 134.539 182.016 128.779 173.567 128.779H136.704C128.256 128.779 121.344 123.02 121.344 115.98C121.344 108.94 128.256 103.18 136.704 103.18H136.191C144.64 103.18 151.552 97.4193 151.552 90.3793C151.552 83.3393 144.64 77.5793 136.191 77.5793H19.9683C11.5203 77.5793 4.6073 71.8193 4.6073 64.7793C4.6073 57.7393 11.5203 51.9803 19.9683 51.9803H221.184C229.632 51.9803 236.544 46.2193 236.544 39.1803C236.544 32.1403 229.632 26.3793 221.184 26.3793H197.632C189.184 26.3793 182.272 20.6193 182.272 13.5793C182.272 6.5393 189.184 0.779297 197.632 0.779297H458.752C467.199 0.779297 474.111 6.5393 474.111 13.5793C474.111 20.6193 467.199 26.3793 458.752 26.3793ZM306.176 215.82C306.176 208.78 299.264 203.02 290.816 203.02H136.704C128.256 203.02 121.344 208.78 121.344 215.82C121.344 222.86 128.256 228.62 136.704 228.62H290.816C299.264 228.62 306.176 222.86 306.176 215.82Z" fill="white"/>
</svg>
