<svg width="482" height="231" viewBox="0 0 482 231" fill="none" xmlns="http://www.w3.org/2000/svg">
<g clip-path="url(#clip0)">
<path fill-rule="evenodd" clip-rule="evenodd" d="M60.0756 51.2012C53.0366 51.2012 47.2756 56.9612 47.2756 64.0012C47.2756 71.0412 53.0366 76.8012 60.0756 76.8012C67.1156 76.8012 72.8766 71.0412 72.8766 64.0012C72.8766 56.9612 67.1156 51.2012 60.0756 51.2012Z" fill="white"/>
<path fill-rule="evenodd" clip-rule="evenodd" d="M413.997 204.8H292.458C284.01 204.8 277.098 199.04 277.098 192C277.098 184.96 284.01 179.2 292.458 179.2H294.957C303.404 179.2 310.316 173.441 310.316 166.401C310.316 159.361 303.404 153.601 294.957 153.601H234.858C226.41 153.601 219.498 147.84 219.498 140.8C219.498 133.76 226.41 128 234.858 128H345.517C353.965 128 360.877 122.24 360.877 115.2C360.877 108.16 353.965 102.401 345.517 102.401H221.034C212.586 102.401 205.674 96.641 205.674 89.601C205.674 82.561 212.586 76.8 221.034 76.8H283.436C291.885 76.8 298.797 71.04 298.797 64C298.797 56.96 291.885 51.2 283.436 51.2H284.138C275.69 51.2 268.778 45.441 268.778 38.401C268.778 31.361 275.69 25.601 284.138 25.601H365.356C373.805 25.601 380.717 19.84 380.717 12.8C380.717 5.76 373.805 0 365.356 0H181.677C173.228 0 166.316 5.76 166.316 12.8C166.316 19.84 173.228 25.601 181.677 25.601H228.33C236.778 25.601 243.69 31.361 243.69 38.401C243.69 45.441 236.778 51.2 228.33 51.2H106.156C97.7086 51.2 90.7966 56.96 90.7966 64C90.7966 71.04 97.7086 76.8 106.156 76.8H106.346C114.794 76.8 121.706 82.561 121.706 89.601C121.706 96.641 114.794 102.401 106.346 102.401H15.8766C7.4286 102.401 0.516602 108.16 0.516602 115.2C0.516602 122.24 7.4286 128 15.8766 128H179.05C187.498 128 194.41 133.76 194.41 140.8C194.41 147.84 187.498 153.601 179.05 153.601H175.276C166.829 153.601 159.917 159.361 159.917 166.401C159.917 173.441 166.829 179.2 175.276 179.2H236.65C245.098 179.2 252.01 184.96 252.01 192C252.01 199.04 245.098 204.8 236.65 204.8H115.917C107.469 204.8 100.557 210.561 100.557 217.601C100.557 224.641 107.469 230.401 115.917 230.401H413.997C422.444 230.401 429.356 224.641 429.356 217.601C429.356 210.561 422.444 204.8 413.997 204.8ZM466.476 204.8H454.316C445.868 204.8 438.956 210.561 438.956 217.601C438.956 224.641 445.868 230.401 454.316 230.401H466.476C474.924 230.401 481.836 224.641 481.836 217.601C481.836 210.561 474.924 204.8 466.476 204.8Z" fill="white"/>
<path fill-rule="evenodd" clip-rule="evenodd" d="M323.116 166.402C323.116 173.442 330.028 179.202 338.476 179.202H391.596C400.045 179.202 406.957 173.442 406.957 166.402C406.957 159.362 400.045 153.602 391.596 153.602H338.476C330.028 153.602 323.116 159.362 323.116 166.402Z" fill="white"/>
</g>
<defs>
<clipPath id="clip0">
<rect width="482" height="231" fill="white"/>
</clipPath>
</defs>
</svg>
