<svg width="1136" height="815" viewBox="0 0 1136 815" fill="none" xmlns="http://www.w3.org/2000/svg">
<g clip-path="url(#clip0)">
<path d="M990.999 708.36C981.776 709.153 972.497 709.029 963.299 707.99C862.179 696.81 724.479 699.99 612.229 769.54C456.989 865.71 213.699 783.38 106.379 738.59C24.3788 704.38 -18.1912 620.59 7.37882 541.94C7.73882 540.83 8.10882 539.72 8.49882 538.61C24.5888 491.87 56.3488 455.29 95.6788 435.9C129.959 419 180.009 383.71 202.279 315.9C211.479 287.9 224.099 261.56 240.489 238.6C284.379 177.11 376.259 85.5401 534.279 86.1101C561.984 86.2443 589.482 90.8988 615.689 99.8901C673.419 119.56 725.559 159.55 765.319 214.99C790.689 250.35 828.709 283.22 883.139 285.9C958.679 289.64 1030.77 324.81 1084.85 387.4C1086.41 389.2 1087.95 391.01 1089.49 392.84C1185.78 507.55 1118.9 697.18 990.999 708.36Z" fill="black"/>
<g opacity="0.7">
<path opacity="0.7" d="M277.46 697.11C285.082 697.11 291.26 690.931 291.26 683.31C291.26 675.688 285.082 669.51 277.46 669.51C269.839 669.51 263.66 675.688 263.66 683.31C263.66 690.931 269.839 697.11 277.46 697.11Z" fill="url(#paint0_linear)"/>
</g>
<path opacity="0.2" d="M277.461 696.491C284.74 696.491 290.641 690.59 290.641 683.311C290.641 676.032 284.74 670.131 277.461 670.131C270.182 670.131 264.281 676.032 264.281 683.311C264.281 690.59 270.182 696.491 277.461 696.491Z" fill="black"/>
<path d="M203.112 419.239C205.928 419.239 208.212 416.956 208.212 414.139C208.212 411.322 205.928 409.039 203.112 409.039C200.295 409.039 198.012 411.322 198.012 414.139C198.012 416.956 200.295 419.239 203.112 419.239Z" fill="white"/>
<path d="M567.112 715.239C569.928 715.239 572.212 712.956 572.212 710.139C572.212 707.322 569.928 705.039 567.112 705.039C564.295 705.039 562.012 707.322 562.012 710.139C562.012 712.956 564.295 715.239 567.112 715.239Z" fill="white"/>
<path d="M352.112 738.989C353.686 738.989 354.962 737.713 354.962 736.139C354.962 734.565 353.686 733.289 352.112 733.289C350.538 733.289 349.262 734.565 349.262 736.139C349.262 737.713 350.538 738.989 352.112 738.989Z" fill="white"/>
<path d="M983.112 600.989C984.686 600.989 985.962 599.713 985.962 598.139C985.962 596.565 984.686 595.289 983.112 595.289C981.538 595.289 980.262 596.565 980.262 598.139C980.262 599.713 981.538 600.989 983.112 600.989Z" fill="white"/>
<path d="M820.112 344.989C821.686 344.989 822.962 343.713 822.962 342.139C822.962 340.565 821.686 339.289 820.112 339.289C818.538 339.289 817.262 340.565 817.262 342.139C817.262 343.713 818.538 344.989 820.112 344.989Z" fill="white"/>
<path d="M1051.11 469.989C1052.69 469.989 1053.96 468.713 1053.96 467.139C1053.96 465.565 1052.69 464.289 1051.11 464.289C1049.54 464.289 1048.26 465.565 1048.26 467.139C1048.26 468.713 1049.54 469.989 1051.11 469.989Z" fill="white"/>
<path d="M293.112 252.239C295.928 252.239 298.212 249.956 298.212 247.139C298.212 244.322 295.928 242.039 293.112 242.039C290.295 242.039 288.012 244.322 288.012 247.139C288.012 249.956 290.295 252.239 293.112 252.239Z" fill="white"/>
<path d="M152.942 592.21H148.402V587.67H146.552V592.21H142.012V594.06H146.552V598.59H148.402V594.06H152.942V592.21Z" fill="white"/>
<path d="M266.942 590.21H262.402V585.67H260.552V590.21H256.012V592.06H260.552V596.59H262.402V592.06H266.942V590.21Z" fill="white"/>
<path d="M429.942 682.21H425.402V677.67H423.552V682.21H419.012V684.06H423.552V688.59H425.402V684.06H429.942V682.21Z" fill="white"/>
<path d="M656.968 130.711H654.898V128.641H654.058V130.711H651.988V131.551H654.058V133.621H654.898V131.551H656.968V130.711Z" fill="white"/>
<path d="M951.968 320.711H949.898V318.641H949.058V320.711H946.988V321.551H949.058V323.621H949.898V321.551H951.968V320.711Z" fill="white"/>
<path d="M777.968 444.711H775.898V442.641H775.058V444.711H772.988V445.551H775.058V447.621H775.898V445.551H777.968V444.711Z" fill="white"/>
<path d="M69.9683 522.711H67.8983V520.641H67.0583V522.711H64.9883V523.551H67.0583V525.621H67.8983V523.551H69.9683V522.711Z" fill="white"/>
<path d="M154.968 692.711H152.898V690.641H152.058V692.711H149.988V693.551H152.058V695.621H152.898V693.551H154.968V692.711Z" fill="white"/>
<path d="M421.968 155.711H419.898V153.641H419.058V155.711H416.988V156.551H419.058V158.621H419.898V156.551H421.968V155.711Z" fill="white"/>
<path d="M295.968 454.711H293.898V452.641H293.058V454.711H290.988V455.551H293.058V457.621H293.898V455.551H295.968V454.711Z" fill="white"/>
<path d="M322.968 368.711H320.898V366.641H320.058V368.711H317.988V369.551H320.058V371.621H320.898V369.551H322.968V368.711Z" fill="white"/>
<g opacity="0.7">
<path opacity="0.7" d="M748.149 567.171C754.511 567.171 759.669 562.013 759.669 555.651C759.669 549.289 754.511 544.131 748.149 544.131C741.787 544.131 736.629 549.289 736.629 555.651C736.629 562.013 741.787 567.171 748.149 567.171Z" fill="url(#paint1_linear)"/>
</g>
<path opacity="0.2" d="M748.151 566.32C754.043 566.32 758.82 561.543 758.82 555.651C758.82 549.758 754.043 544.98 748.151 544.98C742.258 544.98 737.48 549.758 737.48 555.651C737.48 561.543 742.258 566.32 748.151 566.32Z" fill="black"/>
<path opacity="0.2" d="M776.879 642.69C783.468 642.69 788.809 637.349 788.809 630.76C788.809 624.171 783.468 618.83 776.879 618.83C770.29 618.83 764.949 624.171 764.949 630.76C764.949 637.349 770.29 642.69 776.879 642.69Z" fill="black"/>
<g opacity="0.7">
<path opacity="0.7" d="M669.97 307.03C670.053 281.967 664.047 257.259 652.47 235.03C646.98 224.59 641.97 218.11 638.11 214.12C636.636 212.562 634.71 211.506 632.604 211.101C630.498 210.695 628.318 210.961 626.37 211.86C624.813 212.412 623.406 213.319 622.26 214.51C617.05 219.91 612.34 227.05 608.26 234.64C596.088 257.399 589.775 282.83 589.89 308.64V324.12H579.96V144.11C579.96 106.39 571.52 69.1797 554.96 36.1797C547.12 20.5397 539.96 10.8197 534.47 4.84968C533.138 3.33036 531.496 2.11303 529.655 1.27906C527.814 0.445081 525.816 0.0136719 523.795 0.0136719C521.774 0.0136719 519.776 0.445081 517.936 1.27906C516.095 2.11303 514.453 3.33036 513.12 4.84968C505.68 12.9397 498.96 23.6397 493.12 35.0097C475.73 68.7297 466.9 107.01 466.9 145.83V324.05H458.32V307.82C458.429 282.027 452.116 256.613 439.95 233.87C435.84 226.28 431.13 219.14 425.95 213.74C424.446 212.142 422.468 211.068 420.309 210.675C418.149 210.283 415.921 210.593 413.95 211.56L414.31 211.75C413.054 212.309 411.917 213.103 410.96 214.09C407.11 218.09 402.1 224.56 396.61 235C385.033 257.229 379.028 281.937 379.11 307V576H409.75L406.37 598.11V664.24H431.43V598.11L428.08 575.99H458.28V330.99H466.86V574.93H491.33L487.82 598.11V664.24H512.88V598.11L509.37 574.9H542.37L538.84 598.11V664.24H563.9V598.11L560.39 574.9H579.93V331.02H589.86V576.39H597.91V576.02H624.53L621.19 598.11V664.24H646.25V598.11L642.9 575.99H669.97V307.03Z" fill="url(#paint2_linear)"/>
</g>
<path d="M436.402 585.249H412.672L416.912 556.439H432.162L436.402 585.249Z" fill="#535461"/>
<g opacity="0.1">
<path opacity="0.1" d="M415.73 567.88H433.34L432.16 559.83H416.91L415.73 567.88Z" fill="black"/>
</g>
<path d="M639.751 585.249H616.031L620.261 556.439H635.521L639.751 585.249Z" fill="#535461"/>
<g opacity="0.1">
<path opacity="0.1" d="M619.078 567.88H636.698L635.518 559.83H620.258L619.078 567.88Z" fill="black"/>
</g>
<path d="M513.501 585.249H489.781L494.011 556.439H509.271L513.501 585.249Z" fill="#535461"/>
<g opacity="0.1">
<path opacity="0.1" d="M492.828 567.88H510.448L509.268 559.83H494.008L492.828 567.88Z" fill="black"/>
</g>
<path d="M561.798 585.249H538.078L542.308 556.439H557.558L561.798 585.249Z" fill="#535461"/>
<g opacity="0.1">
<path opacity="0.1" d="M541.129 567.88H558.749L557.559 559.83H542.309L541.129 567.88Z" fill="black"/>
</g>
<path d="M605.858 318.35H436.398V325.13H605.858V318.35Z" fill="#535461"/>
<path d="M632.05 211.27C631.155 210.281 630.063 209.49 628.843 208.949C627.624 208.408 626.304 208.129 624.97 208.129C623.636 208.129 622.317 208.408 621.098 208.949C619.878 209.49 618.786 210.281 617.89 211.27C612.96 216.53 608.5 223.48 604.61 230.87C593.072 253.109 587.104 277.816 587.22 302.87V563.71H662.22V301.77C662.314 277.409 656.636 253.373 645.65 231.63C640.44 221.47 635.7 215.11 632.05 211.27Z" fill="#E0E0E0"/>
<path d="M416.981 211.27C417.877 210.281 418.969 209.49 420.189 208.949C421.408 208.408 422.727 208.129 424.061 208.129C425.395 208.129 426.715 208.408 427.934 208.949C429.154 209.49 430.246 210.281 431.141 211.27C436.081 216.53 440.531 223.48 444.431 230.87C455.966 253.11 461.933 277.817 461.821 302.87V563.71H386.821V301.77C386.728 277.409 392.406 253.373 403.391 231.63C408.591 221.47 413.331 215.11 416.981 211.27Z" fill="#E0E0E0"/>
<path d="M387.25 307.33L405.05 307.42V329.36H387.25V307.33Z" fill="#535461"/>
<path d="M444.02 307.33L461.82 307.42V329.36H444.02V307.33Z" fill="#535461"/>
<path d="M587.219 307.33L605.009 307.42V329.36H587.219V307.33Z" fill="#535461"/>
<path d="M643.988 307.33L661.778 307.42V329.36H643.988V307.33Z" fill="#535461"/>
<g opacity="0.1">
<path opacity="0.1" d="M444.429 230.53C440.529 223.14 436.079 216.19 431.139 210.93C429.744 209.384 427.88 208.338 425.833 207.953C423.786 207.568 421.67 207.866 419.809 208.8C420.881 209.335 421.849 210.056 422.669 210.93C427.599 216.19 432.059 223.14 435.949 230.53C447.488 252.769 453.456 277.476 453.339 302.53V563.35H461.819V302.54C461.932 277.484 455.965 252.774 444.429 230.53V230.53Z" fill="black"/>
</g>
<g opacity="0.1">
<path opacity="0.1" d="M611.389 231.25C615.279 223.86 619.739 216.91 624.669 211.65C625.59 210.654 626.707 209.858 627.949 209.31C626.116 208.508 624.077 208.302 622.121 208.722C620.165 209.142 618.391 210.166 617.049 211.65C612.109 216.91 607.649 223.86 603.759 231.25C592.224 253.491 586.257 278.197 586.369 303.25V564.11H593.999V303.27C593.879 278.21 599.847 253.495 611.389 231.25V231.25Z" fill="black"/>
</g>
<path d="M424.862 649.65H424.212C421.151 649.65 418.216 648.434 416.052 646.27C413.888 644.106 412.672 641.171 412.672 638.11V585.25H436.402V638.11C436.402 641.171 435.186 644.106 433.022 646.27C430.858 648.434 427.922 649.65 424.862 649.65Z" fill="url(#paint3_linear)"/>
<path d="M502.19 649.4H501.54C498.479 649.4 495.544 648.184 493.38 646.02C491.216 643.856 490 640.921 490 637.86V585H513.73V637.86C513.73 640.921 512.514 643.856 510.35 646.02C508.186 648.184 505.251 649.4 502.19 649.4Z" fill="url(#paint4_linear)"/>
<path d="M550.19 649.4H549.54C546.479 649.4 543.544 648.184 541.38 646.02C539.216 643.856 538 640.921 538 637.86V585H561.73V637.86C561.73 640.921 560.514 643.856 558.35 646.02C556.186 648.184 553.251 649.4 550.19 649.4Z" fill="url(#paint5_linear)"/>
<path d="M628.19 649.4H627.54C624.479 649.4 621.544 648.184 619.38 646.02C617.216 643.856 616 640.921 616 637.86V585H639.73V637.86C639.73 640.921 638.514 643.856 636.35 646.02C634.186 648.184 631.251 649.4 628.19 649.4Z" fill="url(#paint6_linear)"/>
<path d="M533.928 6.75009C532.689 5.27588 531.143 4.09063 529.397 3.27748C527.652 2.46432 525.749 2.04297 523.823 2.04297C521.898 2.04297 519.995 2.46432 518.25 3.27748C516.504 4.09063 514.957 5.27588 513.718 6.75009C506.718 14.6301 500.318 25.0401 494.718 36.1201C478.258 68.9601 469.898 106.24 469.898 144.04V562.65H576.898V142.36C576.898 105.63 568.898 69.3601 553.258 37.2601C545.908 22.0301 539.138 12.5601 533.928 6.75009Z" fill="#EEEEEE"/>
<path d="M539.629 53.25H505.789C499.714 53.25 494.789 58.1749 494.789 64.25V67.84C494.789 73.9151 499.714 78.84 505.789 78.84H539.629C545.704 78.84 550.629 73.9151 550.629 67.84V64.25C550.629 58.1749 545.704 53.25 539.629 53.25Z" fill="#535461"/>
<g opacity="0.1">
<path opacity="0.1" d="M576.39 158.35H470.48V162.46H576.39V158.35Z" fill="black"/>
</g>
<path d="M761.039 311.33C758.261 307.683 754.788 304.624 750.819 302.33V302.33C746.258 299.701 741.154 298.155 735.901 297.813C730.648 297.471 725.387 298.341 720.524 300.357C715.661 302.373 711.327 305.48 707.857 309.438C704.386 313.396 701.873 318.099 700.51 323.184C699.147 328.268 698.972 333.598 699.998 338.762C701.024 343.925 703.224 348.783 706.427 352.96C709.63 357.137 713.751 360.522 718.472 362.853C723.192 365.183 728.385 366.397 733.649 366.4C734.379 366.4 735.109 366.4 735.819 366.32C742.005 365.93 747.971 363.871 753.082 360.362C758.193 356.854 762.258 352.027 764.845 346.393C767.432 340.76 768.446 334.531 767.777 328.368C767.109 322.205 764.784 316.338 761.049 311.39L761.039 311.33Z" fill="url(#paint7_linear)"/>
<path opacity="0.2" d="M766.09 332.009C766.088 340.26 762.944 348.2 757.297 354.215C751.65 360.23 743.924 363.868 735.69 364.389C735.02 364.389 734.33 364.459 733.64 364.459C728.659 364.462 723.744 363.319 719.276 361.118C714.808 358.917 710.906 355.717 707.873 351.767C704.84 347.816 702.757 343.22 701.785 338.335C700.812 333.45 700.977 328.407 702.267 323.596C703.556 318.785 705.935 314.336 709.22 310.592C712.505 306.848 716.607 303.91 721.209 302.005C725.812 300.101 730.79 299.281 735.76 299.61C740.73 299.938 745.558 301.406 749.87 303.899V303.899C753.628 306.08 756.912 308.99 759.53 312.459V312.459C763.794 318.084 766.098 324.951 766.09 332.009Z" fill="black"/>
<path opacity="0.1" d="M725.65 311.419C723.972 312.141 722.354 312.994 720.81 313.969C719.779 314.532 718.893 315.326 718.22 316.289C717.886 316.774 717.703 317.346 717.692 317.935C717.681 318.524 717.844 319.102 718.16 319.599C718.95 320.679 720.47 320.839 721.81 320.919C723.217 321.098 724.646 320.955 725.99 320.499C726.897 320.05 727.722 319.452 728.43 318.729L731.22 316.199C732.22 315.319 733.22 314.109 732.83 312.869C732.599 312.426 732.262 312.048 731.848 311.769C731.434 311.489 730.957 311.317 730.46 311.269C728.055 310.8 725.561 311.239 723.46 312.499" fill="black"/>
<g opacity="0.1">
<path opacity="0.1" d="M713.999 346.529C714.943 346.529 715.709 345.764 715.709 344.819C715.709 343.875 714.943 343.109 713.999 343.109C713.055 343.109 712.289 343.875 712.289 344.819C712.289 345.764 713.055 346.529 713.999 346.529Z" fill="black"/>
</g>
<g opacity="0.1">
<path opacity="0.1" d="M748.721 340.26C752.178 340.26 754.981 337.458 754.981 334C754.981 330.543 752.178 327.74 748.721 327.74C745.264 327.74 742.461 330.543 742.461 334C742.461 337.458 745.264 340.26 748.721 340.26Z" fill="black"/>
</g>
<g opacity="0.1">
<path opacity="0.1" d="M759.591 312.46C759.573 314.097 759.085 315.694 758.185 317.061C757.285 318.428 756.011 319.508 754.515 320.172C753.019 320.835 751.363 321.055 749.746 320.805C748.128 320.554 746.617 319.845 745.391 318.76C744.166 317.675 743.278 316.261 742.833 314.685C742.388 313.11 742.406 311.44 742.883 309.875C743.36 308.309 744.277 306.914 745.525 305.855C746.773 304.795 748.299 304.117 749.921 303.9V303.9C753.683 306.08 756.971 308.991 759.591 312.46Z" fill="black"/>
</g>
<g opacity="0.1">
<path opacity="0.1" d="M760.169 350.689C757.377 354.663 753.728 357.957 749.49 360.329C745.253 362.701 740.536 364.088 735.689 364.389C735.689 363.939 735.629 363.489 735.629 363.029C735.632 360.182 736.425 357.39 737.921 354.967C739.416 352.544 741.555 350.583 744.099 349.303C746.644 348.024 749.493 347.476 752.33 347.721C755.168 347.966 757.881 348.993 760.169 350.689V350.689Z" fill="black"/>
</g>
<path d="M317.761 496.58C315.825 494.02 313.398 491.872 310.621 490.261V490.261C307.435 488.391 303.86 487.282 300.174 487.021C296.489 486.76 292.793 487.353 289.375 488.754C285.956 490.155 282.907 492.326 280.466 495.099C278.024 497.871 276.255 501.17 275.297 504.738C274.339 508.306 274.218 512.048 274.943 515.67C275.668 519.293 277.22 522.699 279.477 525.624C281.734 528.549 284.636 530.913 287.956 532.532C291.277 534.152 294.927 534.983 298.621 534.96C299.131 534.96 299.621 534.96 300.141 534.91C304.45 534.62 308.601 533.173 312.155 530.721C315.71 528.27 318.538 524.904 320.34 520.979C322.142 517.055 322.852 512.717 322.394 508.423C321.937 504.129 320.329 500.037 317.741 496.58H317.761Z" fill="url(#paint8_linear)"/>
<path opacity="0.2" d="M321.278 511.01C321.277 516.766 319.083 522.306 315.143 526.502C311.203 530.699 305.813 533.237 300.068 533.6C299.598 533.6 299.068 533.6 298.638 533.6C295.166 533.599 291.741 532.8 288.627 531.264C285.513 529.727 282.794 527.496 280.681 524.741C278.567 521.986 277.116 518.782 276.439 515.376C275.761 511.971 275.877 508.455 276.775 505.101C277.674 501.747 279.332 498.645 281.621 496.034C283.91 493.423 286.769 491.374 289.977 490.045C293.184 488.716 296.655 488.142 300.12 488.368C303.585 488.595 306.951 489.615 309.958 491.35V491.35C312.584 492.878 314.876 494.919 316.698 497.35C319.68 501.279 321.289 506.078 321.278 511.01V511.01Z" fill="black"/>
<path opacity="0.1" d="M293.059 496.65C291.89 497.148 290.763 497.74 289.689 498.42C288.974 498.82 288.355 499.373 287.879 500.04C287.657 500.384 287.539 500.786 287.539 501.195C287.539 501.605 287.657 502.006 287.879 502.35C288.211 502.678 288.61 502.93 289.049 503.088C289.487 503.247 289.955 503.309 290.419 503.27C291.402 503.397 292.401 503.298 293.339 502.98C293.975 502.666 294.553 502.247 295.049 501.74L296.989 499.98C297.669 499.36 298.409 498.52 298.109 497.66C297.956 497.345 297.723 497.076 297.434 496.88C297.144 496.683 296.808 496.566 296.459 496.54C294.786 496.212 293.05 496.519 291.589 497.4" fill="black"/>
<g opacity="0.1">
<path opacity="0.1" d="M284.928 521.13C285.586 521.13 286.118 520.597 286.118 519.94C286.118 519.283 285.586 518.75 284.928 518.75C284.271 518.75 283.738 519.283 283.738 519.94C283.738 520.597 284.271 521.13 284.928 521.13Z" fill="black"/>
</g>
<g opacity="0.1">
<path opacity="0.1" d="M309.159 516.769C311.573 516.769 313.529 514.813 313.529 512.399C313.529 509.986 311.573 508.029 309.159 508.029C306.746 508.029 304.789 509.986 304.789 512.399C304.789 514.813 306.746 516.769 309.159 516.769Z" fill="black"/>
</g>
<g opacity="0.1">
<path opacity="0.1" d="M316.711 497.369C316.702 498.522 316.361 499.647 315.729 500.611C315.097 501.575 314.201 502.337 313.147 502.805C312.094 503.273 310.928 503.428 309.789 503.251C308.65 503.074 307.586 502.572 306.725 501.807C305.863 501.041 305.241 500.043 304.931 498.933C304.622 497.822 304.639 496.646 304.98 495.545C305.321 494.444 305.973 493.465 306.856 492.724C307.739 491.984 308.817 491.513 309.961 491.369C312.59 492.896 314.886 494.937 316.711 497.369V497.369Z" fill="black"/>
</g>
<g opacity="0.1">
<path opacity="0.1" d="M317.15 524.039C315.203 526.812 312.656 529.11 309.699 530.765C306.743 532.42 303.452 533.389 300.07 533.599C300.07 533.289 300.07 532.969 300.07 532.599C300.072 530.612 300.625 528.665 301.669 526.974C302.712 525.284 304.204 523.916 305.979 523.023C307.754 522.13 309.742 521.748 311.722 521.919C313.701 522.089 315.594 522.806 317.19 523.989L317.15 524.039Z" fill="black"/>
</g>
<path d="M954.899 430.071C955.915 430.071 956.739 429.247 956.739 428.231C956.739 427.214 955.915 426.391 954.899 426.391C953.882 426.391 953.059 427.214 953.059 428.231C953.059 429.247 953.882 430.071 954.899 430.071Z" fill="white"/>
</g>
<defs>
<linearGradient id="paint0_linear" x1="277.46" y1="697.11" x2="277.46" y2="669.52" gradientUnits="userSpaceOnUse">
<stop stop-color="#808080" stop-opacity="0.25"/>
<stop offset="0.54" stop-color="#808080" stop-opacity="0.12"/>
<stop offset="1" stop-color="#808080" stop-opacity="0.1"/>
</linearGradient>
<linearGradient id="paint1_linear" x1="17974" y1="13611.5" x2="17974" y2="13080.9" gradientUnits="userSpaceOnUse">
<stop stop-color="#808080" stop-opacity="0.25"/>
<stop offset="0.54" stop-color="#808080" stop-opacity="0.12"/>
<stop offset="1" stop-color="#808080" stop-opacity="0.1"/>
</linearGradient>
<linearGradient id="paint2_linear" x1="162369" y1="469714" x2="162369" y2="28488.7" gradientUnits="userSpaceOnUse">
<stop stop-color="#808080" stop-opacity="0.25"/>
<stop offset="0.54" stop-color="#808080" stop-opacity="0.12"/>
<stop offset="1" stop-color="#808080" stop-opacity="0.1"/>
</linearGradient>
<linearGradient id="paint3_linear" x1="424.542" y1="585.25" x2="424.542" y2="649.65" gradientUnits="userSpaceOnUse">
<stop stop-color="#E0E0E0"/>
<stop offset="0.31" stop-color="#FCCC63"/>
<stop offset="0.77" stop-color="#F55F44"/>
</linearGradient>
<linearGradient id="paint4_linear" x1="501.87" y1="585" x2="501.87" y2="649.4" gradientUnits="userSpaceOnUse">
<stop stop-color="#E0E0E0"/>
<stop offset="0.31" stop-color="#FCCC63"/>
<stop offset="0.77" stop-color="#F55F44"/>
</linearGradient>
<linearGradient id="paint5_linear" x1="549.87" y1="585" x2="549.87" y2="649.4" gradientUnits="userSpaceOnUse">
<stop stop-color="#E0E0E0"/>
<stop offset="0.31" stop-color="#FCCC63"/>
<stop offset="0.77" stop-color="#F55F44"/>
</linearGradient>
<linearGradient id="paint6_linear" x1="627.87" y1="585" x2="627.87" y2="649.4" gradientUnits="userSpaceOnUse">
<stop stop-color="#E0E0E0"/>
<stop offset="0.31" stop-color="#FCCC63"/>
<stop offset="0.77" stop-color="#F55F44"/>
</linearGradient>
<linearGradient id="paint7_linear" x1="53279.2" y1="28395.5" x2="53279.2" y2="23681.3" gradientUnits="userSpaceOnUse">
<stop stop-color="#808080" stop-opacity="0.25"/>
<stop offset="0.54" stop-color="#808080" stop-opacity="0.12"/>
<stop offset="1" stop-color="#808080" stop-opacity="0.1"/>
</linearGradient>
<linearGradient id="paint8_linear" x1="16182.4" y1="28223.7" x2="16182.4" y2="25924.1" gradientUnits="userSpaceOnUse">
<stop stop-color="#808080" stop-opacity="0.25"/>
<stop offset="0.54" stop-color="#808080" stop-opacity="0.12"/>
<stop offset="1" stop-color="#808080" stop-opacity="0.1"/>
</linearGradient>
<clipPath id="clip0">
<rect width="1135.18" height="814.22" fill="white"/>
</clipPath>
</defs>
</svg>
