<svg width="808" height="755" viewBox="0 0 808 755" fill="none" xmlns="http://www.w3.org/2000/svg">
<path fill-rule="evenodd" clip-rule="evenodd" d="M589.983 377.294C589.983 480.047 506.686 563.345 403.932 563.345C301.178 563.345 217.88 480.047 217.88 377.294C217.88 274.541 301.178 191.242 403.932 191.242C506.686 191.242 589.983 274.541 589.983 377.294Z" fill="#FFF14C"/>
<rect x="73.8177" y="664.424" width="150.945" height="14.3432" rx="7.1716" transform="rotate(-42 73.8177 664.424)" fill="#FFF14C"/>
<rect x="609.332" y="557.959" width="150.945" height="14.3432" rx="7.1716" transform="rotate(42 609.332 557.959)" fill="#FFF14C"/>
<rect x="81.5778" y="103.818" width="150.945" height="14.3432" rx="7.1716" transform="rotate(33.0043 81.5778 103.818)" fill="#FFF14C"/>
<rect x="605.829" y="198.322" width="150.945" height="14.3432" rx="7.1716" transform="rotate(-33 605.829 198.322)" fill="#FFF14C"/>
<rect x="396.145" y="150.945" width="150.945" height="14.3432" rx="7.1716" transform="rotate(-90 396.145 150.945)" fill="#FFF14C"/>
<rect x="396.145" y="754.725" width="150.945" height="14.3432" rx="7.1716" transform="rotate(-90 396.145 754.725)" fill="#FFF14C"/>
<rect x="657.055" y="362.678" width="150.945" height="14.3432" rx="7.1716" fill="#FFF14C"/>
<rect y="369.508" width="150.945" height="14.3432" rx="7.1716" fill="#FFF14C"/>
</svg>
