<svg width="922" height="922" viewBox="0 0 922 922" fill="none" xmlns="http://www.w3.org/2000/svg">
<path fill-rule="evenodd" clip-rule="evenodd" d="M461 922C398.885 922 338.482 909.772 281.468 885.655C226.546 862.428 177.275 829.227 135.025 786.978C92.7786 744.733 59.5771 695.459 36.3427 640.528C12.2281 583.517 0 523.115 0 461.001C0 398.887 12.2274 338.485 36.3434 281.471C59.5758 226.542 92.7773 177.27 135.025 135.023C177.271 92.7772 226.542 59.5765 281.472 36.342C338.489 12.2274 398.891 0 461 0C523.111 0 583.513 12.2274 640.529 36.3434C695.455 59.5751 744.727 92.7752 786.975 135.022C829.225 177.272 862.427 226.547 885.659 281.479C909.773 338.485 921.999 398.885 921.999 461.001C921.999 523.114 909.771 583.517 885.655 640.532C862.428 695.452 829.229 744.722 786.98 786.973C744.729 829.223 695.457 862.425 640.529 885.657C583.514 909.773 523.112 922 461 922Z" fill="#FDF2B3" fill-opacity="0.4"/>
<path fill-rule="evenodd" clip-rule="evenodd" d="M461 875.393C405.158 875.393 350.863 864.404 299.625 842.731C250.258 821.852 205.965 792.007 167.981 754.022C129.999 716.041 100.151 671.748 79.2668 622.372C57.5944 571.137 46.606 516.843 46.606 461C46.606 405.158 57.5944 350.864 79.2668 299.626C100.15 250.252 129.998 205.959 167.979 167.978C205.96 129.997 250.254 100.15 299.628 79.2663C350.868 57.5938 405.161 46.6055 461 46.6055C516.84 46.6055 571.134 57.5945 622.373 79.267C671.744 100.148 716.037 129.995 754.02 167.977C792.005 205.963 821.852 250.257 842.735 299.632C864.405 350.863 875.393 405.156 875.393 461C875.393 516.843 864.404 571.137 842.731 622.375C821.853 671.74 792.008 716.032 754.023 754.018C716.04 792.001 671.746 821.849 622.373 842.732C571.135 864.404 516.841 875.393 461 875.393Z" fill="#FDF2B3" fill-opacity="0.4"/>
<path fill-rule="evenodd" clip-rule="evenodd" d="M461 828.789C411.43 828.789 363.244 819.038 317.781 799.809C273.969 781.279 234.656 754.787 200.936 721.068C167.219 687.352 140.726 648.038 122.192 604.218C102.961 558.757 93.212 510.572 93.212 461.002C93.212 411.431 102.961 363.245 122.192 317.783C140.725 273.966 167.218 234.652 200.936 200.935C234.651 167.219 273.964 140.726 317.784 122.193C363.247 102.964 411.432 93.2129 461 93.2129C510.569 93.2129 558.755 102.964 604.218 122.193C648.033 140.724 687.346 167.217 721.065 200.935C754.784 234.655 781.277 273.97 799.809 317.788C819.037 363.243 828.787 411.429 828.787 461.002C828.787 510.572 819.037 558.758 799.807 604.22C781.279 648.031 754.786 687.345 721.067 721.065C687.351 754.782 648.037 781.275 604.218 799.809C558.755 819.038 510.569 828.789 461 828.789Z" fill="#FDF2B3" fill-opacity="0.4"/>
<path fill-rule="evenodd" clip-rule="evenodd" d="M461 782.182C417.7 782.182 375.624 773.671 335.937 756.884C297.678 740.703 263.345 717.564 233.892 688.111C204.439 658.66 181.299 624.326 165.116 586.062C148.33 546.376 139.818 504.299 139.818 461.001C139.818 417.702 148.33 375.625 165.116 335.938C181.299 297.676 204.439 263.342 233.89 233.89C263.341 204.439 297.675 181.3 335.939 165.116C375.626 148.329 417.702 139.818 461 139.818C504.298 139.818 546.375 148.329 586.062 165.116C624.323 181.299 658.657 204.438 688.11 233.89C717.564 263.344 740.703 297.68 756.884 335.942C773.67 375.624 782.181 417.701 782.181 461.001C782.181 504.3 773.67 546.377 756.883 586.063C740.703 624.322 717.563 658.656 688.11 688.11C658.66 717.56 624.326 740.7 586.062 756.885C546.376 773.671 504.299 782.182 461 782.182Z" fill="#FDF2B3" fill-opacity="0.4"/>
<path fill-rule="evenodd" clip-rule="evenodd" d="M461 735.576C423.973 735.576 388.004 728.303 354.094 713.959C321.388 700.127 292.033 680.342 266.846 655.155C241.659 629.969 221.875 600.613 208.039 567.906C193.696 533.995 186.424 498.027 186.424 461C186.424 423.973 193.696 388.004 208.039 354.094C221.874 321.386 241.659 292.031 266.846 266.845C292.032 241.659 321.387 221.874 354.094 208.04C388.005 193.697 423.974 186.424 461 186.424C498.026 186.424 533.996 193.697 567.906 208.04C600.613 221.874 629.967 241.659 655.155 266.845C680.341 292.032 700.127 321.388 713.96 354.095C728.303 388.004 735.575 423.973 735.575 461C735.575 498.027 728.303 533.995 713.959 567.907C700.127 600.612 680.341 629.967 655.155 655.154C629.969 680.34 600.614 700.125 567.906 713.96C533.996 728.303 498.026 735.576 461 735.576Z" fill="#FDF2B3" fill-opacity="0.4"/>
<path fill-rule="evenodd" clip-rule="evenodd" d="M461 688.969C430.245 688.969 400.385 682.935 372.249 671.035C345.097 659.551 320.723 643.12 299.801 622.199C278.88 601.277 262.448 576.902 250.964 549.75C239.064 521.615 233.03 491.755 233.03 461C233.03 430.244 239.064 400.385 250.964 372.249C262.448 345.097 278.88 320.721 299.801 299.8C320.723 278.878 345.097 262.448 372.249 250.963C400.385 239.063 430.245 233.029 461 233.029C491.755 233.029 521.615 239.063 549.75 250.964C576.902 262.448 601.277 278.878 622.199 299.8C643.12 320.721 659.552 345.097 671.035 372.249C682.936 400.385 688.969 430.244 688.969 461C688.969 491.755 682.936 521.615 671.035 549.75C659.552 576.902 643.12 601.277 622.199 622.199C601.277 643.12 576.902 659.55 549.75 671.035C521.615 682.935 491.755 688.969 461 688.969Z" fill="#FDF2B3" fill-opacity="0.4"/>
</svg>
